<svg xmlns="http://www.w3.org/2000/svg" xmlns:xlink="http://www.w3.org/1999/xlink" viewBox="0 0 200 80"><defs><path id="a" d="M0 .127h49.727v79.846H0z"/></defs><g fill="none" fill-rule="evenodd"><mask id="b" fill="#fff"><use xlink:href="#a"/></mask><path fill="#C64D50" mask="url(#b)" d="M0 .127v57.275h22.973V80l26.754-22.598V.127H0"/><path fill="#FFFFFE" d="M9.95 47.805v-6.599h12.207V29.037H9.95v-6.598h30.846v6.598H28.414v12.169h12.382v6.599H9.95M9.95 14.634h30.846V7.805H9.95z"/><path fill="#228FC2" d="M49.751 57.561H200V0H49.751z"/><path fill="#FFFFFE" d="M60.697 23.415h2.985V8.78h-2.985zM67.662 8.78h2.649v12.347h6.306v2.288h-8.955V8.78M78.607 8.78h2.649v12.347h6.306v2.288h-8.955V8.78M90.547 23.415h2.985V8.78h-2.985zM96.517 8.78h2.655l5.538 8.452c.557.844 1.216 2.267 1.216 2.267h.04s-.143-1.403-.143-2.267V8.78h2.635v14.635h-2.635l-5.538-8.43c-.557-.846-1.216-2.267-1.216-2.267h-.04s.143 1.4.143 2.267v8.43h-2.655V8.78m22.389 12.282c2.642 0 4.758-2.152 4.758-5.063 0-2.793-2.116-4.866-4.758-4.866-2.644 0-4.759 2.073-4.759 4.866 0 2.91 2.115 5.063 4.759 5.063zm0-12.282c4.25 0 7.462 3.171 7.462 7.219 0 4.167-3.212 7.416-7.462 7.416s-7.463-3.249-7.463-7.416c0-4.048 3.212-7.219 7.463-7.219zM129.353 23.415h2.985V8.78h-2.985zM136.778 19.548s1.598 1.495 3.677 1.495c1.121 0 2.14-.558 2.14-1.715 0-2.532-6.96-2.094-6.96-6.44 0-2.353 2.119-4.108 4.943-4.108 2.91 0 4.404 1.515 4.404 1.515l-1.163 2.095s-1.412-1.238-3.26-1.238c-1.248 0-2.224.699-2.224 1.695 0 2.514 6.939 1.895 6.939 6.421 0 2.254-1.787 4.147-4.862 4.147-3.28 0-5.089-1.934-5.089-1.934l1.455-1.933M61.692 33.171h2.641v6.204h6.657v-6.204h2.642v14.634H70.99v-6.142h-6.657v6.142h-2.641V33.171M76.617 33.17h2.689v9.223c0 1.926 1.29 3.02 3.271 3.02 1.98 0 3.293-1.094 3.293-3.04v-9.202h2.687v9.222c0 3.224-2.396 5.412-5.96 5.412-3.583 0-5.98-2.188-5.98-5.412v-9.222m16.17 0h2.961l2.982 7.235c.344.866.772 2.143.772 2.143h.044s.407-1.277.75-2.143l2.983-7.235h2.961l1.223 14.634h-2.746l-.644-8.183c-.065-.969-.022-2.268-.022-2.268h-.043s-.45 1.424-.815 2.268l-2.468 5.669h-2.424l-2.446-5.669c-.364-.844-.837-2.288-.837-2.288h-.043s.043 1.32-.02 2.288l-.645 8.183h-2.768l1.245-14.634m23.122 2.536s-.325 1.443-.61 2.267l-1.283 3.915h3.79l-1.285-3.915c-.265-.824-.57-2.267-.57-2.267h-.042zm2.548 8.347h-5.073l-1.223 3.75h-2.708l5.092-14.633h2.75l5.093 14.634h-2.71l-1.221-3.75zm6.916-10.883h2.657l5.537 8.451c.556.844 1.215 2.268 1.215 2.268h.04s-.144-1.403-.144-2.268v-8.451h2.635v14.634h-2.635l-5.536-8.43c-.557-.846-1.216-2.267-1.216-2.267h-.04s.144 1.401.144 2.267v8.43h-2.657V33.17M140.299 47.805h2.985V33.171h-2.985zM149.95 35.46h-4.676v-2.289h11.94v2.289h-4.675v12.345h-2.589V35.46M160.199 47.805h2.985V33.171h-2.985zM166.169 33.171h8.631v2.289h-6.01v3.833h4.853v2.287h-4.853v3.938h6.334v2.287h-8.955V33.171M179.564 43.938s1.598 1.495 3.677 1.495c1.12 0 2.14-.559 2.14-1.714 0-2.533-6.96-2.095-6.96-6.44 0-2.353 2.119-4.108 4.943-4.108 2.91 0 4.404 1.515 4.404 1.515l-1.163 2.094s-1.412-1.237-3.26-1.237c-1.248 0-2.223.698-2.223 1.695 0 2.513 6.938 1.894 6.938 6.42 0 2.254-1.787 4.147-4.862 4.147-3.28 0-5.089-1.934-5.089-1.934l1.455-1.933"/></g></svg>